inDegrees=no
num_controls=7
num_derivatives=13
num_iterations=107
num_multipliers=7
num_parameters=0
num_slacks=7
num_states=26
objective=0.497024
objective_accelerations=0.032183
objective_balance=0.003297
objective_effort=0.035038
objective_height=0.421014
objective_ligament=0.005493
solver_duration=1222.008017
status=Solve_Succeeded
success=true
DataType=double
version=3
OpenSimVersion=4.5
endheader
time	/jointset/ground_pelvis/pelvis_tilt/value	/jointset/ground_pelvis/pelvis_tx/value	/jointset/ground_pelvis/pelvis_ty/value	/jointset/hip_r/hip_flexion_r/value	/jointset/hip_r/hip_adduction_r/value	/jointset/hip_r/hip_rotation_r/value	/jointset/back/lumbar_extension/value	/jointset/patellofemoral_r/patellar_flexion_r/value	/jointset/knee_r/knee_flexion_r/value	/jointset/knee_r/knee_adduction_r/value	/jointset/knee_r/knee_rotation_r/value	/jointset/ankle_r/ankle_angle_r/value	/jointset/subtalar_r/subtalar_angle_r/value	/jointset/ground_pelvis/pelvis_tilt/speed	/jointset/ground_pelvis/pelvis_tx/speed	/jointset/ground_pelvis/pelvis_ty/speed	/jointset/hip_r/hip_flexion_r/speed	/jointset/hip_r/hip_adduction_r/speed	/jointset/hip_r/hip_rotation_r/speed	/jointset/back/lumbar_extension/speed	/jointset/patellofemoral_r/patellar_flexion_r/speed	/jointset/knee_r/knee_flexion_r/speed	/jointset/knee_r/knee_adduction_r/speed	/jointset/knee_r/knee_rotation_r/speed	/jointset/ankle_r/ankle_angle_r/speed	/jointset/subtalar_r/subtalar_angle_r/speed	/forceset/tau_hip_flexion_r	/forceset/tau_hip_adduction_r	/forceset/tau_hip_rotation_r	/forceset/tau_knee_flexion_r	/forceset/tau_ankle_angle_r	/forceset/tau_subtalar_angle_r	/forceset/tau_lumbar_extension	lambda_cid13_p0	lambda_cid14_p0	lambda_cid14_p1	lambda_cid14_p2	lambda_cid14_p3	lambda_cid14_p4	lambda_cid14_p5	/jointset/ground_pelvis/pelvis_tilt/accel	/jointset/ground_pelvis/pelvis_tx/accel	/jointset/ground_pelvis/pelvis_ty/accel	/jointset/hip_r/hip_flexion_r/accel	/jointset/hip_r/hip_adduction_r/accel	/jointset/hip_r/hip_rotation_r/accel	/jointset/back/lumbar_extension/accel	/jointset/patellofemoral_r/patellar_flexion_r/accel	/jointset/knee_r/knee_flexion_r/accel	/jointset/knee_r/knee_adduction_r/accel	/jointset/knee_r/knee_rotation_r/accel	/jointset/ankle_r/ankle_angle_r/accel	/jointset/subtalar_r/subtalar_angle_r/accel	gamma_cid13_p0	gamma_cid14_p0	gamma_cid14_p1	gamma_cid14_p2	gamma_cid14_p3	gamma_cid14_p4	gamma_cid14_p5
1	-0.1795393586717958	0.0381805346586539	0.7501419576556795	1.094756372352983	-0.2365118909084047	-0.07097872798902452	-0.4362910944889384	1.15766573631967	1.157665736318938	-0.02872056024234321	0.1744422788327474	0.4363093825470685	0.1034625365432041	-0.0002518758308364328	0.004155405993154014	0.01232306478702725	-0.03511547729257962	0.00194027171871148	-0.01033793172737494	0.004314844858906082	-0.04425018526485095	-0.04425018526485208	-0.0004275401073357256	-0.0001849988747120616	-0.01003434322444998	-0.0003392250760459054	-0.1974349883786305	0.02968044963022405	0.01345250223049622	-0.445553098957223	-0.04048097212670689	0.004332732620722681	0.2434561090839641	-3.108255629195098	-60.2960893490837	-9.102272059387275	2.398364253050412	20.62725541043024	-770.594910943867	54.82488651329826	0.9624204080413525	0.003152702961666483	1.230401916998094	-3.873502081669181	0.1208611069936184	-0.5782447449226806	0.2707883496231513	-4.29762648448396	-4.297626484483738	0.4816747120736364	-0.006269176468877647	-1.57165814003067	-0.3905560385805171	1.229459481774508e-09	-2.965074044213578e-09	2.702213771604713e-09	7.7595568899949e-09	7.604576457921425e-09	-6.144480913713416e-09	1.998738325508536e-09
1.01	-0.1794949365250617	0.03822235286368528	0.7503266157015215	1.09421260553874	-0.2364865310464898	-0.07111044508108816	-0.4362324375983218	1.15700826269922	1.157008262699268	-0.02870005918489707	0.1744400097278236	0.4361304248926833	0.1034394449844091	0.009077724024814295	0.004220619975364191	0.02461193799842234	-0.073616249518019	0.003132233388427737	-0.01600506857416569	0.007546321865541132	-0.08728487359268536	-0.08728487359267527	0.004538687899941563	-0.0002719107100110354	-0.02576211929740991	-0.004279391456237808	-0.1978920464857796	0.0298088226136748	0.01346455285929842	-0.4454667471449769	-0.04055909818079454	0.004284265639601769	0.2440154492432718	-3.134689823762527	-60.34893518489427	-9.13743306070603	2.409519863591291	20.51265944903119	-771.1238034926413	54.76250198342329	0.9094434192723166	0.01006486223148157	1.228637064496122	-3.835118833846103	0.1184463361454807	-0.5608841562736875	0.3687956648977969	-4.312440697649286	-4.312440697647719	0.5057378345603566	-0.0103621365847733	-1.574077815430692	-0.3957897152637266	2.366453653806799e-09	-2.045548174544947e-09	6.729661606703432e-09	1.500122073419179e-08	6.866376479370904e-09	-9.967857702680698e-09	7.439022060149843e-09
1.02	-0.179358975650782	0.03826519503181489	0.7506342638877344	1.09328448019406	-0.2364492350400299	-0.07129882074197394	-0.4361375722798571	1.155919232057349	1.155919232058183	-0.02862956764947066	0.1744367795146466	0.4357940413826483	0.1033769432063087	0.01805586967828237	0.004360198612802068	0.0369210928612581	-0.1119871833780537	0.00432750062552885	-0.02166964548961286	0.01155653042074073	-0.1305615895491664	-0.1305615895491461	0.009570555487434785	-0.0003772205262839466	-0.04151951435045093	-0.00822126893743692	-0.1983491045929925	0.02993719559713562	0.01347660348814193	-0.4453803953327362	-0.04063722423487424	0.004235798658499686	0.2445747894025184	-3.178783140038789	-60.41196005025883	-9.169287968962955	2.414336273616673	20.41962197156795	-771.8153596743217	54.72509390170291	0.8921295676047425	0.01802563400729902	1.234458247286235	-3.847534408588293	0.1215222204705794	-0.5777327586539964	0.4265346593357511	-4.346032010213293	-4.346032010213259	0.4948026281168083	-0.009948772663646483	-1.577581936046746	-0.3908982587819226	2.972355029923953e-09	-1.433320555236998e-09	9.704655727697778e-09	2.34968200707775e-08	6.882383874148155e-09	-1.073161188412193e-08	9.031247302254432e-09
1.03	-0.179134824171537	0.03830989713775604	0.7510650323087743	1.091973183085665	-0.2364000162410514	-0.07154380421181716	-0.4359985438025827	1.154396499740905	1.154396499741567	-0.02850840645593022	0.1744324562083018	0.435300163137595	0.1032750345704926	0.02672987914300673	0.004601916525296486	0.04922840031430768	-0.15025891072231	0.005512418830549411	-0.02732395757670369	0.01639917370271389	-0.1739976101426256	-0.1739976101426257	0.01467460206999639	-0.000485940578227887	-0.05723846567025422	-0.01215832650824604	-0.1988223159311442	0.02996317880224401	0.01349134522765628	-0.4448453655570471	-0.04060095143694582	0.004201882941593878	0.2451742698405872	-3.240950065431637	-60.40686172748026	-9.172462433759286	2.402663271501367	20.18314217421046	-772.1013791710434	54.6830572797137	0.8483557688704515	0.03050034392009583	1.228236042204246	-3.814991866326315	0.1164064553264469	-0.5588141524654091	0.5356304622418141	-4.344298262611884	-4.344298262614958	0.5201446581976251	-0.01110164049485307	-1.566402374398476	-0.3947838181687776	3.572837091797072e-09	-8.242286323613029e-10	1.266891052507881e-08	3.200521466748964e-08	6.906087262530796e-09	-1.146414542671085e-08	1.058420664137393e-08
1.04	-0.1788252687710501	0.038357667517632	0.7516187476139227	1.090279568710032	-0.2363390622930488	-0.07184523754629228	-0.4358065886325461	1.152439024982788	1.152439024983279	-0.02833581699957703	0.1744270920976261	0.4346496252504493	0.1031338204965822	0.03513665392629985	0.004973853399764499	0.0615104696829761	-0.1884506368258489	0.006674530427910208	-0.03295961841294492	0.02214186896923985	-0.2175100778840723	-0.2175100778840926	0.01985620804742267	-0.0005853813915732676	-0.07285144276811076	-0.01608235655658992	-0.1992955272693149	0.02998916200735083	0.01350608696716244	-0.4443103357813595	-0.04056467863901587	0.004167967224685582	0.2457737502786379	-3.321737112052407	-60.41198488361952	-9.172237700006981	2.384521389202314	19.96701551256343	-772.5516588848316	54.66650044756486	0.8386826313184247	0.04406942640209138	1.22941063041001	-3.831534160444849	0.1169608989386204	-0.5740025084841109	0.6065450562461797	-4.361321439810798	-4.361321439810705	0.5103145070897243	-0.008092924943915981	-1.556387091657287	-0.3882927542888473	4.387062406749072e-09	1.687830543238745e-10	1.563399630527985e-08	4.054614827722979e-08	6.330296394178434e-09	-1.285382346529854e-08	1.300791601401067e-08
1.05	-0.1784328331402596	0.03840981267638122	0.752295101168181	1.088204397391393	-0.2362666280022287	-0.07220292970546052	-0.4355528124031132	1.150046187626336	1.150046187626271	-0.02811101076855941	0.1744208195645706	0.4338435213989401	0.1029534107185284	0.0433187840703829	0.005477455429539084	0.07375016252282979	-0.2265721026516092	0.007806336853378851	-0.03857460443092812	0.02875578117791683	-0.2610554763374028	-0.2610554763374375	0.02511895071741433	-0.000664991983144065	-0.08834803210496564	-0.01999858503094769	-0.1996565886856419	0.02999018186982315	0.0135209803854619	-0.4433114227781284	-0.04061804546804931	0.004134031426153284	0.2462505099016246	-3.421785621737137	-60.42029246689008	-9.167263270442881	2.359550107783673	19.77228197092986	-772.5700557196271	54.60537356697179	0.8032265209281472	0.05684829451976222	1.219733946863805	-3.800722949665311	0.1104007397899088	-0.5546110896029475	0.7101749420302813	-4.35086253770963	-4.350862537711836	0.5363426572783743	-0.007264503138738476	-1.543101637840099	-0.3931268790032927	5.207967198359787e-09	1.173792233628096e-09	1.859910805369402e-08	4.908809873112707e-08	5.735771330303107e-09	-1.426403726938618e-08	1.545883632519482e-08
